# xmcd
#
# Track frame offsets:
#	150
#	14116
#	24982
#	38632
#	52492
#	66087
#	76783
#	89125
#	103304
#	116270
#	126033
#	136386
#	148780
#
# Disc length: 2133 seconds
#
# Revision: 1
# Processed by: cddbd v1.5.2PL0 Copyright (c) Steve Scherf et al.
# Submitted via: audiograbber 1.83.01
#
DISCID=bb08530d
DTITLE=Georgette Jones - Till I Can Make It On My Own
DYEAR=2013
DGENRE=Country
TTITLE0='Til I Can Make It On My Own
TTITLE1=Take Me
TTITLE2=D-I-V-O-R-C-E
TTITLE3=Apartment Number 9
TTITLE4=My Elusive Dreams
TTITLE5=Staying Home Woman
TTITLE6='Til I Get It Right
TTITLE7=Golden Ring
TTITLE8=Take Me To Your World
TTITLE9=Your Good Girl's Gonna Go Bad
TTITLE10=Something To Brag About
TTITLE11=Stand By Your Man
TTITLE12=Run Woman Run
EXTD=
EXTT0=
EXTT1=
EXTT2=
EXTT3=
EXTT4=
EXTT5=
EXTT6=
EXTT7=
EXTT8=
EXTT9=
EXTT10=
EXTT11=
EXTT12=
PLAYORDER=
